<svg width="21" height="20" viewBox="0 0 21 20" fill="none" xmlns="http://www.w3.org/2000/svg">
<g id="Star" clip-path="url(#clip0_2001_180)">
<path id="Star_2" d="M9.87171 1.60996C10.0425 1.19932 10.6242 1.19932 10.795 1.60996L12.8611 6.57744C12.9331 6.75056 13.0959 6.86885 13.2828 6.88383L18.6456 7.31376C19.089 7.3493 19.2687 7.90256 18.931 8.19189L14.8451 11.6919C14.7027 11.8139 14.6405 12.0053 14.684 12.1876L15.9323 17.4208C16.0355 17.8534 15.5649 18.1954 15.1853 17.9635L10.594 15.1592C10.434 15.0615 10.2328 15.0615 10.0727 15.1592L5.48143 17.9635C5.10188 18.1954 4.63126 17.8534 4.73445 17.4208L5.98276 12.1876C6.02626 12.0053 5.96408 11.8139 5.82168 11.6919L1.73579 8.19189C1.39802 7.90256 1.57778 7.3493 2.02111 7.31376L7.38392 6.88383C7.57081 6.86885 7.73362 6.75056 7.80562 6.57744L9.87171 1.60996Z" fill="white"/>
</g>
<defs>
<clipPath id="clip0_2001_180">
<rect width="20" height="20" fill="white" transform="translate(0.333374)"/>
</clipPath>
</defs>
</svg>
